<svg width="106" height="67" viewBox="0 0 106 67" fill="none" xmlns="http://www.w3.org/2000/svg">
<path d="M59.8503 31.0372C59.6642 29.8159 59.1526 28.6669 58.3691 27.7102C57.5857 26.7536 56.5591 26.0244 55.3966 25.599C56.3325 24.7989 57.0272 23.7551 57.4028 22.5839C57.7784 21.4128 57.8203 20.1605 57.5238 18.9669C57.3254 18.0088 56.9269 17.1032 56.3542 16.309C55.7815 15.5148 55.0475 14.8499 54.2 14.3577C52.3647 13.3223 50.2133 12.9921 48.1509 13.4292C45.206 14.0302 42.5088 15.497 40.4066 17.6405C38.095 20.0477 36.1569 22.786 34.6566 25.7648C34.3652 26.2839 34.0077 26.7632 33.593 27.1907C32.6574 28.0018 31.6314 28.7027 30.5352 29.2798V29.2798C30.6917 27.6435 31.2762 26.0769 32.2303 24.7368C36.1522 20.1276 40.0078 14.4571 38.8777 7.72562C38.5981 5.99596 37.7848 4.39637 36.5511 3.14954C35.7624 2.2916 34.7725 1.6425 33.6703 1.2605C32.5681 0.878506 31.388 0.77557 30.236 0.960958C29.0081 1.13642 27.8515 1.64299 26.8909 2.42604C25.9303 3.20909 25.2022 4.23889 24.7851 5.40441C23.9832 4.47062 22.9369 3.77766 21.7631 3.40289C20.5892 3.02812 19.334 2.98631 18.1377 3.28216C17.1758 3.4761 16.2664 3.87211 15.4698 4.44385C14.6732 5.0156 14.0078 5.74999 13.5177 6.59818C12.4535 8.41967 12.1098 10.5721 12.5539 12.6334C13.1715 15.5659 14.6393 18.2526 16.775 20.3597C19.1995 22.6667 21.9552 24.6003 24.9513 26.0964C25.4664 26.3797 25.9368 26.7373 26.3473 27.1575C27.1812 28.0818 27.8959 29.1067 28.4744 30.2082C26.8344 30.0521 25.2642 29.4689 23.921 28.5171C19.2678 24.6042 13.5842 20.7576 6.83706 21.885C5.11311 22.1642 3.52046 22.9761 2.28359 24.2063C1.42365 24.9931 0.773039 25.9807 0.390158 27.0804C0.00727695 28.1801 -0.0958987 29.3574 0.0899197 30.5067C0.247665 31.7382 0.748712 32.9008 1.53608 33.8623C2.32346 34.8237 3.36552 35.5453 4.54369 35.945C3.60773 36.745 2.91316 37.7889 2.53752 38.9601C2.16188 40.1312 2.11997 41.3835 2.41651 42.577C2.60887 43.5374 3.00498 44.4456 3.57826 45.2406C4.15154 46.0356 4.8887 46.6991 5.74023 47.1863C7.56594 48.248 9.72338 48.591 11.7894 48.1479C14.7162 47.5239 17.3964 46.0601 19.5004 43.9366C21.8129 41.5177 23.7508 38.7684 25.2504 35.7792C25.5466 35.2645 25.9161 34.7953 26.3473 34.3865C27.2617 33.5394 28.291 32.825 29.4051 32.2642V32.2642C29.276 33.9012 28.7013 35.472 27.7432 36.8071C23.788 41.4496 19.9325 47.12 21.0958 53.8515C21.404 55.562 22.2137 57.143 23.4224 58.3944C24.218 59.2527 25.2138 59.9016 26.3213 60.2834C27.4288 60.6652 28.6137 60.7681 29.7707 60.583C30.9974 60.4041 32.1523 59.8962 33.1123 59.1136C34.0723 58.3311 34.8013 57.3032 35.2216 56.1396C36.0235 57.0734 37.0698 57.7663 38.2437 58.1411C39.4176 58.5158 40.6727 58.5577 41.869 58.2618C42.8316 58.0699 43.742 57.6747 44.5388 57.1027C45.3357 56.5308 46.0007 55.7953 46.489 54.9458C47.5268 53.1147 47.8578 50.9682 47.4197 48.9106C46.8091 45.9851 45.3397 43.3071 43.1985 41.2175C40.7858 38.9112 38.0411 36.9776 35.0554 35.4808C34.5347 35.1776 34.0544 34.8099 33.6262 34.3865C32.7985 33.4645 32.0946 32.439 31.5323 31.3357V31.3357C33.148 31.4857 34.6955 32.0576 36.0193 32.9937C40.6393 36.9398 46.3228 40.7864 53.07 39.6258C54.7944 39.3188 56.3898 38.5114 57.6567 37.3045C58.517 36.5108 59.1674 35.5173 59.5501 34.4124C59.9328 33.3074 60.0359 32.1253 59.8503 30.971" fill="#BBD8C8"/>
<path d="M104.705 31.676C104.062 30.8723 103.215 30.2563 102.251 29.8926C101.287 29.5288 100.243 29.4306 99.2265 29.6083C99.5688 28.6407 99.6355 27.5977 99.4189 26.5959C99.2023 25.5941 98.7111 24.6728 98.0001 23.9351C97.4579 23.3264 96.7933 22.8389 96.0493 22.5045C95.3053 22.1702 94.4987 21.9963 93.6821 21.9944C91.9265 22.0125 90.2363 22.6712 88.9299 23.8465C87.0549 25.5081 85.7192 27.6912 85.0946 30.1147C84.4286 32.8158 84.1701 35.6 84.3276 38.3754C84.3335 38.8714 84.2751 39.3664 84.1538 39.8478C83.8165 40.8232 83.3678 41.7569 82.817 42.6304C82.2485 41.3843 82.0181 40.0099 82.1486 38.6451C83.0598 33.6834 83.4812 27.9836 79.8627 23.5967C78.9406 22.465 77.6877 21.6497 76.2782 21.2643C75.3517 20.9739 74.367 20.9182 73.4126 21.1021C72.458 21.286 71.5635 21.7037 70.8094 22.3178C69.9962 22.9564 69.3724 23.8042 69.0052 24.7699C68.638 25.7355 68.5414 26.7823 68.7257 27.7973C67.7581 27.4577 66.7145 27.3939 65.7113 27.6129C64.7081 27.8318 63.7848 28.325 63.0446 29.0373C62.4312 29.5783 61.9398 30.2433 61.603 30.988C61.2662 31.7328 61.0917 32.5402 61.0912 33.3567C61.0817 35.1149 61.7298 36.8116 62.9086 38.1141C64.5754 39.9729 66.7535 41.2999 69.1721 41.9301C71.8825 42.5842 74.6764 42.8306 77.4616 42.6612C77.9513 42.6508 78.4396 42.7128 78.9109 42.8449C79.8977 43.1643 80.8401 43.606 81.7164 44.1597C80.4677 44.7308 79.0917 44.9647 77.7259 44.8377C72.7385 43.9539 67.0351 43.5477 62.6352 47.1745C61.5073 48.0947 60.6959 49.3447 60.3155 50.7482C60.0226 51.6746 59.9643 52.6586 60.1458 53.6119C60.3274 54.5652 60.7432 55.4579 61.3559 56.2098C61.9825 57.0328 62.8282 57.663 63.7968 58.0285C64.7653 58.394 65.8178 58.4804 66.8345 58.2776C66.4922 59.2452 66.4256 60.2882 66.6422 61.29C66.8587 62.2917 67.3499 63.213 68.0609 63.9507C68.5996 64.5637 69.2637 65.0539 70.0085 65.3886C70.7532 65.7233 71.5614 65.8948 72.3789 65.8914C74.1385 65.8965 75.8383 65.2444 77.1449 64.0632C78.9973 62.3926 80.322 60.2187 80.9562 57.8089C81.618 55.0991 81.8717 52.3069 81.7093 49.5244C81.7087 49.0294 81.78 48.5368 81.921 48.062C82.2281 47.0694 82.6736 46.1246 83.244 45.2554C83.8325 46.4907 84.0719 47.8638 83.9363 49.227C83.015 54.2264 82.5936 59.9262 86.2361 64.2992C87.1708 65.4051 88.4135 66.2085 89.8069 66.6077C90.7384 66.8954 91.7273 66.9485 92.6855 66.7624C93.6437 66.5761 94.5417 66.1563 95.2997 65.5404C96.1104 64.8997 96.7325 64.0516 97.0994 63.0866C97.4663 62.1216 97.5645 61.0759 97.3833 60.0608C98.3508 60.4004 99.3945 60.4642 100.398 60.2453C101.401 60.0263 102.324 59.5331 103.064 58.8208C103.679 58.281 104.172 57.6163 104.508 56.8712C104.845 56.1262 105.019 55.3181 105.018 54.5015C105.004 52.7473 104.349 51.0602 103.176 49.7579C101.518 47.9011 99.342 46.5811 96.9267 45.9658C94.2252 45.3074 91.4391 45.0563 88.6612 45.2209C88.1591 45.2192 87.6594 45.1541 87.1741 45.0271C86.1929 44.7068 85.2578 44.2602 84.3927 43.6984C85.6211 43.1331 86.976 42.9005 88.3213 43.0242C93.2985 43.9457 99.002 44.352 103.388 40.7013C104.505 39.7608 105.32 38.5129 105.732 37.1137C106.022 36.1822 106.078 35.194 105.894 34.237C105.71 33.28 105.292 32.3839 104.678 31.6282" fill="#D9E7CF"/>
</svg>
