<svg width="244" height="182" viewBox="0 0 244 182" fill="none" xmlns="http://www.w3.org/2000/svg">
<path opacity="0.5" d="M89.815 143.11C92.6152 145.54 96.0192 147.172 99.6713 147.836C103.323 148.499 107.089 148.169 110.576 146.88C109.99 150.53 110.43 154.268 111.847 157.676C113.265 161.084 115.603 164.029 118.602 166.181C120.918 167.985 123.59 169.281 126.445 169.983C129.299 170.684 132.27 170.777 135.166 170.254C141.378 169.051 146.942 165.621 150.81 160.609C156.379 153.507 159.699 144.907 160.341 135.916C160.95 125.916 160.061 115.886 157.703 106.157C157.36 104.403 157.247 102.612 157.364 100.828C157.928 97.1535 158.913 93.5551 160.299 90.1035C163.122 94.1489 164.83 98.8676 165.252 103.787C165.24 121.955 167.442 142.419 183.113 155.611C187.115 159.021 192.085 161.096 197.332 161.547C200.804 161.975 204.33 161.533 207.594 160.262C210.859 158.992 213.759 156.931 216.034 154.267C218.502 151.477 220.163 148.069 220.839 144.41C221.514 140.751 221.178 136.98 219.866 133.504C223.516 134.079 227.257 133.628 230.671 132.202C234.085 130.775 237.038 128.429 239.2 125.426C241.024 123.111 242.334 120.437 243.045 117.58C243.756 114.723 243.851 111.75 243.323 108.857C242.217 102.623 238.819 97.0329 233.796 93.1841C226.683 87.6808 218.102 84.3935 209.12 83.7306C199.088 83.1722 189.025 84.1121 179.262 86.5196C177.533 86.8738 175.762 86.9713 174.006 86.8091C170.301 86.3182 166.673 85.3651 163.208 83.9721C167.264 81.1387 171.99 79.4175 176.913 78.9809C195.166 78.8754 215.646 76.614 228.89 60.9115C232.292 56.9198 234.357 51.9655 234.796 46.7469C235.233 43.2752 234.802 39.7516 233.54 36.4926C232.278 33.2336 230.226 30.3411 227.566 28.075C224.812 25.5662 221.405 23.8828 217.735 23.2164C214.065 22.5499 210.278 22.9271 206.805 24.3051C207.391 20.6554 206.951 16.9176 205.534 13.5094C204.117 10.1011 201.778 7.1564 198.78 5.00448C196.473 3.18294 193.801 1.87715 190.944 1.17468C188.087 0.47222 185.111 0.389345 182.215 0.931757C175.975 2.05578 170.372 5.46844 166.507 10.5003C161.024 17.6204 157.738 26.1806 157.052 35.1285C156.464 45.1569 157.375 55.2126 159.755 64.9638C160.078 66.7167 160.144 68.508 159.953 70.2816C159.507 73.997 158.541 77.6327 157.083 81.0818C154.196 77.088 152.457 72.379 152.053 67.4626C152.077 49.1548 149.875 28.6907 134.128 15.5634C130.098 12.2521 125.172 10.2127 119.974 9.70277C116.485 9.28812 112.946 9.74154 109.67 11.023C106.394 12.3044 103.483 14.374 101.196 17.0479C98.7372 19.8432 97.0822 23.251 96.4072 26.9076C95.7322 30.5642 96.0625 34.3324 97.363 37.8102C93.7132 37.2352 89.9722 37.6863 86.5581 39.1129C83.144 40.5395 80.1912 42.8855 78.0294 45.889C76.2002 48.2003 74.8858 50.8746 74.1746 53.7323C73.4634 56.59 73.3717 59.565 73.9059 62.4574C75.0912 68.6625 78.5066 74.2138 83.5089 78.0659C90.5928 83.5668 99.1606 86.8312 108.121 87.4436C118.124 88.0231 128.162 87.1048 137.903 84.7191C139.684 84.3992 141.497 84.3057 143.3 84.4408C146.986 84.9385 150.59 85.914 154.021 87.3426C150.033 90.1424 145.381 91.8453 140.532 92.2801C122.292 92.2452 101.811 94.5067 88.6313 110.285C85.2829 114.341 83.2026 119.291 82.6503 124.514C82.2252 128.002 82.6685 131.539 83.9408 134.81C85.2133 138.08 87.2753 140.984 89.9438 143.262" fill="#7FB069"/>
<path opacity="0.5" d="M68.6254 138.033C68.0465 136.713 67.1224 135.572 65.9496 134.73C64.7769 133.889 63.3986 133.377 61.9587 133.249C62.7729 132.064 63.2411 130.677 63.3111 129.243C63.3811 127.81 63.05 126.385 62.355 125.129C61.8418 124.109 61.1187 123.209 60.2329 122.487C59.347 121.765 58.3181 121.237 57.2135 120.938C54.8304 120.326 52.3038 120.604 50.1093 121.72C46.9689 123.287 44.3695 125.756 42.6456 128.808C40.765 132.22 39.4059 135.893 38.6133 139.704C38.4413 140.378 38.1829 141.026 37.8442 141.633C37.0339 142.83 36.0882 143.931 35.0259 144.913C34.7082 143.021 34.8944 141.078 35.5658 139.279C38.5977 132.898 41.2341 125.34 37.926 118.093C37.0881 116.228 35.6875 114.67 33.9193 113.638C32.7705 112.909 31.4577 112.476 30.099 112.379C28.7402 112.282 27.378 112.522 26.1345 113.079C24.8024 113.648 23.6507 114.569 22.8036 115.742C21.9566 116.915 21.4463 118.296 21.3279 119.736C20.1412 118.926 18.7517 118.461 17.3143 118.393C15.8769 118.326 14.4484 118.658 13.1883 119.353C12.1618 119.862 11.2556 120.584 10.5297 121.469C9.80384 122.354 9.275 123.383 8.97838 124.487C8.32813 126.862 8.59054 129.393 9.71409 131.582C11.2966 134.701 13.7639 137.286 16.8095 139.016C20.2413 140.884 23.9339 142.231 27.7655 143.012C28.4321 143.175 29.0707 143.436 29.6607 143.786C30.8807 144.576 31.9964 145.515 32.9818 146.582C31.0845 146.902 29.1371 146.719 27.3344 146.052C20.9035 143.047 13.3304 140.429 6.05986 143.739C4.19949 144.575 2.64815 145.972 1.6245 147.732C0.892136 148.879 0.456532 150.189 0.356795 151.545C0.257057 152.9 0.496303 154.259 1.05306 155.498C1.60299 156.839 2.51937 157.998 3.69796 158.844C4.87655 159.689 6.27001 160.188 7.71976 160.282C6.90562 161.467 6.43743 162.854 6.36745 164.288C6.29747 165.721 6.62846 167.146 7.32348 168.402C7.83056 169.426 8.55171 170.33 9.43853 171.053C10.3253 171.776 11.3573 172.301 12.465 172.593C14.8452 173.238 17.3825 172.973 19.5792 171.849C22.6922 170.26 25.2734 167.8 27.0055 164.77C28.8833 161.345 30.239 157.66 31.0277 153.837C31.2063 153.167 31.4814 152.526 31.8443 151.935C32.6199 150.704 33.5653 149.587 34.6526 148.618C35.0014 150.503 34.8277 152.447 34.1502 154.242C31.0908 160.671 28.4544 168.228 31.8 175.465C32.6643 177.3 34.0552 178.838 35.7968 179.883C36.9535 180.61 38.2727 181.041 39.6374 181.137C41.002 181.232 42.3697 180.99 43.6189 180.432C44.9486 179.859 46.098 178.938 46.9446 177.765C47.7911 176.593 48.303 175.214 48.4256 173.775C49.6122 174.585 51.0018 175.05 52.4392 175.118C53.8766 175.185 55.3051 174.853 56.5652 174.158C57.5931 173.651 58.5006 172.93 59.2267 172.045C59.9528 171.159 60.4808 170.129 60.7751 169.024C61.3927 166.646 61.1177 164.126 60.0019 161.939C58.4295 158.825 55.963 156.251 52.9166 154.542C49.4982 152.672 45.8181 151.322 41.998 150.537C41.319 150.352 40.6662 150.083 40.0552 149.735C38.843 148.946 37.7393 148.003 36.7717 146.929C38.6396 146.61 40.558 146.787 42.334 147.442C48.7375 150.494 56.3107 153.112 63.5712 149.764C65.4236 148.897 66.9794 147.505 68.044 145.761C68.7746 144.606 69.2082 143.29 69.3062 141.929C69.4041 140.567 69.1634 139.203 68.6054 137.958" fill="#6BAA75"/>
</svg>
