<svg width="24" height="26" viewBox="0 0 24 26" fill="none" xmlns="http://www.w3.org/2000/svg">
<path d="M21.8281 14.3305C21.8242 14.2964 21.8213 14.2633 21.815 14.2317L21.8731 14.206L21.7339 13.9787C21.7081 13.9215 21.677 13.8669 21.641 13.8156C21.641 13.8092 21.641 13.8037 21.6386 13.7968C21.6266 13.6907 21.6215 13.5839 21.6235 13.4771C21.6235 13.3066 21.6308 13.1065 21.6396 12.8842C21.6503 12.5976 21.6621 12.2739 21.6621 11.925C21.6621 11.2451 21.621 10.2128 21.2624 9.10842C20.8897 7.95263 20.2312 6.91938 19.305 6.04031C18.3372 5.11774 17.1452 4.4467 15.7544 4.04052C15.9041 3.64571 15.9566 3.22001 15.9073 2.80012C15.8581 2.38023 15.7087 1.97874 15.4719 1.63029C15.2351 1.28183 14.9181 0.996865 14.5481 0.799954C14.1782 0.603044 13.7665 0.5001 13.3485 0.500001C12.7294 0.49997 12.1315 0.728373 11.667 1.14238C11.2024 0.72791 10.604 0.499456 9.98453 0.500001C9.30182 0.501567 8.64752 0.776588 8.16477 1.26489C7.68202 1.7532 7.41012 2.41504 7.40858 3.1056C7.40783 3.42421 7.46548 3.7402 7.57858 4.03755C6.18777 4.44324 4.99579 5.11379 4.02755 6.03438C3.10278 6.91444 2.44329 7.9467 2.07055 9.10348C1.71197 10.2074 1.67045 11.2397 1.67045 11.9201C1.67045 12.2699 1.68266 12.5941 1.69341 12.8812C1.70172 13.1035 1.70953 13.3022 1.70953 13.4742C1.70953 13.6461 1.69976 13.7632 1.6983 13.8042C1.58794 13.9583 1.52046 14.1396 1.50289 14.329C0.697324 15.2748 0.166794 16.3619 0.166794 18.4403C0.166794 23.0491 4.46575 25.8 11.667 25.8C18.8682 25.8 23.1672 23.0491 23.1672 18.4403C23.1672 16.3619 22.6366 15.2748 21.8281 14.3305ZM15.282 4.05238C15.2394 4.14673 15.1904 4.23803 15.1355 4.32564H15.1291C15.1863 4.23776 15.2374 4.14596 15.282 4.0509V4.05238ZM13.3485 2.23888C13.5183 2.23888 13.6844 2.28984 13.8256 2.38532C13.9669 2.48079 14.077 2.6165 14.1419 2.77526C14.2069 2.93402 14.2239 3.10871 14.1907 3.27724C14.1576 3.44576 14.0757 3.60055 13.9556 3.72202C13.8354 3.84349 13.6823 3.92619 13.5157 3.95965C13.3491 3.99311 13.1764 3.97584 13.0195 3.91001C12.8625 3.84419 12.7285 3.73277 12.6341 3.58984C12.5398 3.44692 12.4895 3.27892 12.4896 3.10709C12.4899 2.87668 12.5804 2.65578 12.7414 2.49276C12.9024 2.32975 13.1207 2.23792 13.3485 2.2374V2.23888ZM9.98453 2.23888C10.1545 2.23869 10.3207 2.28952 10.4621 2.38494C10.6035 2.48036 10.7138 2.61608 10.7789 2.77492C10.8439 2.93375 10.861 3.10855 10.8278 3.27718C10.7946 3.44581 10.7127 3.60068 10.5924 3.72219C10.4722 3.8437 10.319 3.92638 10.1522 3.95976C9.98546 3.99313 9.81267 3.9757 9.65572 3.90968C9.49877 3.84366 9.36472 3.73201 9.27055 3.58887C9.17637 3.44573 9.12631 3.27754 9.12669 3.1056C9.12708 2.87555 9.21757 2.65502 9.37834 2.4923C9.53912 2.32958 9.75709 2.23792 9.98453 2.2374V2.23888ZM8.20633 4.32416H8.19998C8.14514 4.23648 8.09618 4.14519 8.05342 4.0509C8.09814 4.14494 8.14923 4.23575 8.20633 4.32267V4.32416ZM3.70415 9.64605C3.95915 8.86333 4.40029 8.07122 5.20634 7.30135C6.14967 6.40251 7.25811 5.89849 8.39392 5.61534C9.52972 5.3322 10.6816 5.27686 11.667 5.27785C12.6523 5.27883 13.8072 5.33171 14.9401 5.61534C16.0729 5.89898 17.1828 6.40251 18.1276 7.30135C18.9337 8.07122 19.3748 8.86333 19.6298 9.64605C19.8848 10.4288 19.9444 11.2075 19.9444 11.9226C19.9444 12.2724 19.9322 12.598 19.9215 12.9108C19.3624 12.2298 18.9202 11.4588 18.6132 10.6299C17.4466 7.56621 15.3714 6.56409 11.667 6.56409C7.96255 6.56409 5.88733 7.56621 4.72075 10.6299C4.41422 11.4593 3.97142 12.2305 3.41104 12.9108C3.40029 12.598 3.38661 12.2729 3.38808 11.9226C3.38808 11.208 3.44768 10.4293 3.70415 9.64605ZM11.667 24.0626C9.37095 24.0626 1.88442 23.6569 1.88442 18.4403C1.88442 16.3753 2.46283 15.7867 3.42032 14.8118C4.21123 14.0068 5.19706 13.0047 5.92299 11.0964C6.84287 8.68198 8.2923 7.86714 11.667 7.86714C15.0417 7.86714 16.4911 8.68198 17.411 11.0964C18.1384 13.0047 19.1208 14.0068 19.9136 14.8118C20.8711 15.7867 21.4495 16.3753 21.4495 18.4403C21.4495 23.6569 13.963 24.0626 11.667 24.0626Z" fill="#FFFFF0"/>
</svg>
