<svg width="24" height="19" viewBox="0 0 24 19" fill="none" xmlns="http://www.w3.org/2000/svg">
<path d="M23.9381 2.76312C23.8314 2.22879 23.5951 1.72885 23.25 1.30718C23.1795 1.21938 23.1039 1.13579 23.0236 1.05687C22.7151 0.747478 22.3485 0.502012 21.945 0.334541C21.5414 0.167071 21.1088 0.0808881 20.6719 0.0809326H3.32813C2.44552 0.0814195 1.59926 0.43247 0.97547 1.05687C0.895595 1.13593 0.820315 1.21951 0.750002 1.30718C0.404378 1.72805 0.169157 2.22846 0.0656273 2.76312C0.0217283 2.9761 -0.000261204 3.19301 2.34096e-06 3.41046V15.59C2.59268e-05 16.0449 0.0938548 16.4949 0.275627 16.9119C0.440515 17.2974 0.678125 17.6475 0.97547 17.9431C1.05 18.0176 1.12406 18.0861 1.20469 18.154C1.80179 18.6486 2.55281 18.9192 3.32813 18.919H20.6719C21.4483 18.9205 22.2004 18.6485 22.7962 18.1508C22.8765 18.0859 22.953 18.0166 23.0255 17.9431C23.3228 17.6468 23.5613 17.2969 23.7286 16.9119V16.909C23.909 16.4928 24.0014 16.0437 24 15.59V3.41046C23.9998 3.19321 23.9791 2.97646 23.9381 2.76312V2.76312ZM2.18016 2.26109C2.33027 2.10939 2.5091 1.98912 2.70619 1.90727C2.90329 1.82542 3.11471 1.78364 3.32813 1.78437H20.6719C20.9234 1.78265 21.1718 1.84039 21.3968 1.95289C21.6218 2.06538 21.817 2.22945 21.9665 2.43171L12.8775 10.3536C12.6346 10.5654 12.3232 10.6821 12.0009 10.6821C11.6786 10.6821 11.3673 10.5654 11.1244 10.3536L2.03766 2.42843C2.08014 2.36857 2.12783 2.31257 2.18016 2.26109V2.26109ZM1.70297 15.59V4.19093L8.28093 9.9289L1.70625 15.6612C1.70346 15.6376 1.70236 15.6138 1.70297 15.59V15.59ZM20.6719 17.2156H3.32813C3.04581 17.216 2.76844 17.1416 2.52422 17L9.46171 10.9531L10.1095 11.5156C10.6342 11.9732 11.3069 12.2253 12.003 12.2253C12.6992 12.2253 13.3719 11.9732 13.8966 11.5156L14.5439 10.9531L21.4762 17C21.2318 17.1415 20.9543 17.2159 20.6719 17.2156ZM22.298 15.59C22.2986 15.6138 22.2975 15.6376 22.2947 15.6612L15.7195 9.93218L22.297 4.19374L22.298 15.59Z" fill="#F9F9F9"/>
</svg>
