<svg width="26" height="26" viewBox="0 0 26 26" fill="none" xmlns="http://www.w3.org/2000/svg">
<path d="M15.9401 17.5559C15.6478 17.2641 15.1823 17.2395 14.861 17.4984L13.3405 18.7244C13.0395 18.9676 12.6081 18.9627 12.3119 18.713C12.3119 18.713 11.0157 17.8407 9.58735 16.4123C8.15903 14.9849 7.28623 13.6873 7.28623 13.6873C7.03696 13.3915 7.03218 12.9602 7.27524 12.6592L8.50083 11.1387C8.7602 10.817 8.73559 10.3519 8.44336 10.0597L5.53228 7.1486C5.2356 6.85285 4.76216 6.83175 4.44005 7.10119L0.788688 10.1681C0.495574 10.4147 0.414861 10.8311 0.596501 11.1689C0.596501 11.1689 1.08712 12.1712 1.54347 12.9382C2.7963 15.0463 4.83282 17.5392 6.64644 19.3532C8.46088 21.1668 10.9525 23.2038 13.0618 24.4566C13.8288 24.9121 14.8306 25.404 14.8306 25.404C15.1677 25.5839 15.5854 25.5036 15.8311 25.2106L18.8984 21.5592C19.1678 21.238 19.1467 20.764 18.851 20.4674L15.9401 17.5559Z" fill="#E8AA14"/>
<path d="M16.6575 13.6518L17.8695 13.4596C17.6646 12.1704 17.0625 10.9264 16.0673 9.93155C15.0738 8.93809 13.8302 8.33604 12.5402 8.13023L12.3475 9.3418C13.3924 9.51031 14.3932 9.99297 15.1998 10.7996C16.0068 11.6061 16.4903 12.6074 16.6575 13.6518Z" fill="#E8AA14"/>
<path d="M21.5318 4.46838C19.3355 2.27258 16.5934 0.949975 13.7451 0.50061L13.5547 1.71262C16.1581 2.12424 18.655 3.32834 20.6634 5.33634C22.6714 7.34435 23.8751 9.84293 24.2871 12.4455L25.5 12.2542C25.0498 9.40543 23.7272 6.66417 21.5318 4.46838Z" fill="#E8AA14"/>
<path d="M13.1422 4.31125L12.9517 5.52458C14.7776 5.81203 16.5289 6.65406 17.9371 8.06222C19.3457 9.47076 20.1886 11.2212 20.4752 13.048L21.6876 12.8567C21.3632 10.7859 20.4023 8.79107 18.8059 7.19469C17.2086 5.59787 15.2134 4.63732 13.1422 4.31125Z" fill="#E8AA14"/>
</svg>
