<svg width="20" height="27" viewBox="0 0 20 27" fill="none" xmlns="http://www.w3.org/2000/svg">
<path d="M10.3333 6.59731L4.69742 1.14706C4.03407 0.505181 3.05099 0.322673 2.20041 0.682103C1.35063 1.04311 0.798386 1.87704 0.798386 2.80065V16.7147C0.798386 17.6494 1.17767 18.5444 1.84971 19.1951L8.73372 25.853C9.62559 26.7154 11.0411 26.7154 11.9321 25.853L18.817 19.1951C19.489 18.5444 19.8683 17.6494 19.8683 16.7147V2.80065C19.8683 1.87704 19.316 1.04316 18.4663 0.682103C17.6157 0.322673 16.6326 0.505181 15.9692 1.14706L10.3333 6.59731ZM16.6223 16.314C16.6223 16.6258 16.4961 16.9242 16.2716 17.1408L10.3333 22.8846V11.1137L11.4616 10.0219L15.6479 5.97366C15.813 5.8134 16.0597 5.76734 16.2716 5.85783C16.4843 5.94751 16.6223 6.15617 16.6223 6.38707V16.314Z" fill="#FFFFF0"/>
</svg>
