<svg width="18" height="26" viewBox="0 0 18 26" fill="none" xmlns="http://www.w3.org/2000/svg">
<path d="M9 0.5C4.35146 0.5 0.584167 4.26733 0.584167 8.91582C0.584167 13.6601 2.93563 14.6708 5.53466 17.8267C8.64335 21.6016 9 25.5 9 25.5C9 25.5 9.35664 21.6016 12.4653 17.8268C15.0644 14.6708 17.4158 13.6601 17.4158 8.91587C17.4158 4.26733 13.6485 0.5 9 0.5ZM9 11.8243C7.39369 11.8243 6.09159 10.5221 6.09159 8.91587C6.09159 7.30962 7.39374 6.00747 9 6.00747C10.6062 6.00747 11.9084 7.30962 11.9084 8.91587C11.9084 10.5221 10.6062 11.8243 9 11.8243Z" fill="#FFFFF0"/>
</svg>
