<svg width="240" height="240" viewBox="0 0 240 240" fill="none" xmlns="http://www.w3.org/2000/svg">
<path d="M239.641 121.065C238.895 116.163 236.847 111.552 233.71 107.713C230.573 103.873 226.462 100.947 221.808 99.2395C225.555 96.0288 228.337 91.8394 229.841 87.1392C231.345 82.4391 231.512 77.4132 230.325 72.6232C229.531 68.778 227.935 65.1434 225.642 61.9562C223.349 58.7689 220.41 56.1004 217.017 54.1249C209.668 49.9697 201.054 48.6444 192.796 50.3986C181.005 52.8109 170.205 58.6973 161.788 67.3C152.532 76.9607 144.772 87.9504 138.765 99.905C137.598 101.988 136.167 103.912 134.506 105.628C130.76 108.883 126.652 111.696 122.263 114.012V114.012C122.889 107.445 125.23 101.158 129.05 95.7795C144.754 77.2812 160.191 54.5241 155.666 27.5086C154.547 20.5669 151.29 14.1473 146.351 9.14347C143.193 5.7003 139.229 3.09525 134.816 1.56219C130.402 0.0291369 125.677 -0.383978 121.065 0.360038C116.148 1.06421 111.517 3.09722 107.671 6.23982C103.825 9.38243 100.91 13.5153 99.2395 18.1929C96.0287 14.4453 91.8394 11.6643 87.1392 10.1602C82.4391 8.65617 77.4132 8.48836 72.6232 9.67571C68.772 10.454 65.1306 12.0433 61.9411 14.3379C58.7516 16.6325 56.0871 19.5798 54.1249 22.9839C49.8639 30.294 48.4875 38.9324 50.2656 47.2048C52.7385 58.9739 58.6159 69.7566 67.167 78.2126C76.8747 87.4716 87.9086 95.2315 99.905 101.236C101.967 102.373 103.851 103.808 105.494 105.494C108.834 109.204 111.695 113.317 114.012 117.738C107.445 117.111 101.158 114.771 95.7795 110.951C77.1481 95.2472 54.3911 79.8097 27.3756 84.3345C20.4729 85.4547 14.0959 88.713 9.14347 93.6501C5.7003 96.808 3.09524 100.772 1.56219 105.185C0.0291369 109.598 -0.383978 114.323 0.360038 118.936C0.99165 123.878 2.99784 128.544 6.15048 132.403C9.30311 136.261 13.4755 139.157 18.1929 140.761C14.4453 143.972 11.6643 148.161 10.1602 152.861C8.65617 157.562 8.48836 162.587 9.67571 167.377C10.4459 171.232 12.0319 174.876 14.3273 178.067C16.6227 181.258 19.5743 183.92 22.9839 185.876C30.294 190.137 38.9324 191.513 47.2048 189.735C58.9236 187.23 69.655 181.356 78.0796 172.834C87.3386 163.126 95.0982 152.092 101.103 140.096C102.288 138.03 103.768 136.147 105.494 134.506C109.156 131.107 113.277 128.24 117.738 125.989V125.989C117.221 132.559 114.92 138.863 111.084 144.221C95.2471 162.853 79.8096 185.61 84.4675 212.625C85.7014 219.49 88.9435 225.835 93.7833 230.857C96.9689 234.302 100.956 236.906 105.39 238.438C109.825 239.971 114.569 240.384 119.202 239.641C124.113 238.923 128.738 236.884 132.582 233.744C136.425 230.603 139.344 226.478 141.027 221.808C144.238 225.555 148.427 228.336 153.128 229.84C157.828 231.345 162.853 231.512 167.643 230.325C171.498 229.555 175.143 227.969 178.333 225.673C181.524 223.378 184.186 220.426 186.142 217.017C190.297 209.668 191.622 201.054 189.868 192.796C187.424 181.055 181.54 170.307 172.967 161.921C163.306 152.665 152.316 144.905 140.362 138.898C138.277 137.681 136.354 136.206 134.639 134.506C131.325 130.806 128.507 126.691 126.255 122.263V122.263C132.724 122.865 138.921 125.16 144.221 128.917C162.72 144.754 185.477 160.191 212.492 155.533C219.397 154.301 225.785 151.061 230.857 146.217C234.302 143.032 236.906 139.045 238.438 134.61C239.971 130.176 240.384 125.431 239.641 120.799" fill="#D3E5D2"/>
</svg>
