<svg width="277" height="277" viewBox="0 0 277 277" fill="none" xmlns="http://www.w3.org/2000/svg">
<path d="M268.859 64.8915C264.998 60.0671 259.907 56.3702 254.119 54.187C248.33 52.0038 242.057 51.4144 235.954 52.4806C238.01 46.673 238.411 40.413 237.11 34.4001C235.809 28.3871 232.859 22.8578 228.589 18.4301C225.333 14.7763 221.341 11.8507 216.872 9.84377C212.404 7.83683 207.559 6.79359 202.655 6.78218C192.111 6.89032 181.96 10.8438 174.113 17.8983C162.852 27.8715 154.829 40.9745 151.078 55.5203C147.078 71.732 145.526 88.4435 146.472 105.101C146.507 108.078 146.156 111.049 145.428 113.939C143.402 119.793 140.707 125.397 137.399 130.64C133.985 123.161 132.601 114.912 133.385 106.72C138.857 76.9396 141.388 42.7292 119.655 16.399C114.118 9.60651 106.592 4.71298 98.1268 2.39958C92.5627 0.657009 86.6487 0.322556 80.9158 1.42625C75.1829 2.52994 69.8104 5.03725 65.281 8.72303C60.3974 12.5559 56.6509 17.6446 54.4456 23.4403C52.2403 29.236 51.6598 35.5188 52.7667 41.6111C46.9556 39.5731 40.6875 39.1898 34.6622 40.504C28.6369 41.8183 23.0917 44.7783 18.6463 49.0536C14.9622 52.3007 12.0106 56.2919 9.98778 60.7619C7.96491 65.2319 6.91712 70.0783 6.91411 74.9787C6.85669 85.5318 10.7497 95.7155 17.8294 103.533C27.8402 114.69 40.9217 122.654 55.448 126.436C71.7265 130.363 88.5065 131.842 105.235 130.825C108.176 130.763 111.109 131.134 113.939 131.927C119.865 133.844 125.526 136.495 130.789 139.819C123.289 143.247 115.025 144.65 106.822 143.888C76.8677 138.584 42.6129 136.145 16.1872 157.914C9.41292 163.437 4.54002 170.939 2.25537 179.363C0.495847 184.923 0.145642 190.829 1.2362 196.551C2.32675 202.273 4.82395 207.631 8.50355 212.144C12.2671 217.084 17.3464 220.866 23.1636 223.06C28.9808 225.254 35.3022 225.772 41.4085 224.555C39.3524 230.362 38.9524 236.622 40.2531 242.635C41.5537 248.648 44.5039 254.177 48.7741 258.605C52.0096 262.284 55.9977 265.226 60.4708 267.235C64.9438 269.244 69.7982 270.273 74.7076 270.253C85.2763 270.283 95.4853 266.37 103.332 259.28C114.458 249.253 122.414 236.205 126.223 221.742C130.197 205.477 131.722 188.718 130.746 172.018C130.743 169.047 131.171 166.09 132.017 163.24C133.862 157.283 136.538 151.612 139.964 146.395C143.498 153.809 144.936 162.051 144.122 170.232C138.588 200.239 136.057 234.45 157.934 260.697C163.548 267.335 171.011 272.157 179.38 274.552C184.975 276.279 190.914 276.598 196.669 275.48C202.425 274.363 207.818 271.843 212.37 268.146C217.239 264.301 220.975 259.211 223.179 253.419C225.383 247.627 225.972 241.35 224.884 235.258C230.695 237.296 236.963 237.679 242.989 236.365C249.014 235.051 254.559 232.091 259.004 227.815C262.697 224.575 265.654 220.585 267.678 216.114C269.701 211.642 270.744 206.792 270.737 201.89C270.656 191.362 266.722 181.236 259.677 173.419C249.715 162.275 236.648 154.352 222.142 150.659C205.916 146.707 189.184 145.2 172.499 146.188C169.484 146.178 166.483 145.787 163.568 145.025C157.674 143.103 152.059 140.422 146.862 137.05C154.24 133.657 162.378 132.261 170.457 133.003C200.351 138.535 234.606 140.973 260.949 119.061C267.655 113.416 272.551 105.926 275.024 97.5284C276.768 91.9374 277.103 86.0065 275.998 80.2626C274.894 74.5187 272.384 69.14 268.693 64.6044" fill="#D9E7CF"/>
</svg>
