<svg width="39" height="39" viewBox="0 0 39 39" fill="none" xmlns="http://www.w3.org/2000/svg">
<path d="M38.4431 20.0397C38.3251 19.2636 38.0008 18.5335 37.5041 17.9256C37.0074 17.3177 36.3565 16.8544 35.6196 16.584C36.2129 16.0756 36.6533 15.4123 36.8914 14.6681C37.1296 13.9239 37.1561 13.1282 36.9681 12.3698C36.8423 11.7609 36.5897 11.1855 36.2267 10.6808C35.8636 10.1762 35.3983 9.75366 34.861 9.44087C33.6974 8.78296 32.3335 8.57312 31.026 8.85088C29.1591 9.23281 27.4492 10.1648 26.1164 11.5269C24.6509 13.0565 23.4222 14.7966 22.4711 16.6894C22.2863 17.0192 22.0597 17.3238 21.7968 17.5955C21.2037 18.1109 20.5533 18.5563 19.8583 18.9229C19.9575 17.8832 20.3281 16.8877 20.9329 16.0362C23.4193 13.1073 25.8636 9.50408 25.1471 5.22662C24.9699 4.12753 24.4543 3.11109 23.6722 2.31881C23.1722 1.77364 22.5446 1.36117 21.8458 1.11844C21.147 0.875707 20.3989 0.810297 19.6686 0.9281C18.8901 1.03959 18.1569 1.36149 17.5479 1.85907C16.9389 2.35664 16.4773 3.01102 16.2129 3.75164C15.7046 3.15827 15.0412 2.71794 14.297 2.4798C13.5529 2.24165 12.7571 2.21508 11.9987 2.40308C11.3889 2.52632 10.8123 2.77795 10.3073 3.14126C9.80234 3.50457 9.38047 3.97123 9.06978 4.51021C8.39512 5.66765 8.17719 7.03539 8.45872 8.34519C8.85026 10.2086 9.78085 11.9159 11.1348 13.2548C12.6718 14.7208 14.4189 15.9494 16.3183 16.9001C16.6448 17.0801 16.943 17.3073 17.2033 17.5744C17.732 18.1617 18.185 18.813 18.5518 19.5129C17.5121 19.4137 16.5166 19.0431 15.6651 18.4383C12.7151 15.9519 9.11193 13.5076 4.83447 14.2241C3.74154 14.4014 2.73185 14.9173 1.94772 15.699C1.40255 16.199 0.99008 16.8266 0.747347 17.5254C0.504613 18.2241 0.439203 18.9723 0.557006 19.7026C0.657011 20.4851 0.974658 21.2239 1.47383 21.8348C1.97299 22.4457 2.63363 22.9043 3.38055 23.1583C2.78718 23.6666 2.34684 24.33 2.1087 25.0742C1.87056 25.8183 1.84399 26.6141 2.03199 27.3725C2.15393 27.9828 2.40506 28.5599 2.7685 29.065C3.13193 29.5702 3.59927 29.9918 4.13911 30.3014C5.29655 30.9761 6.66429 31.194 7.97409 30.9125C9.82957 30.5159 11.5287 29.5858 12.8626 28.2364C14.3286 26.6994 15.5572 24.9523 16.5079 23.0529C16.6957 22.7258 16.9299 22.4277 17.2033 22.1679C17.783 21.6297 18.4356 21.1757 19.1418 20.8194C19.06 21.8596 18.6957 22.8577 18.0883 23.7061C15.5808 26.6561 13.1365 30.2593 13.874 34.5367C14.0694 35.6237 14.5827 36.6283 15.349 37.4235C15.8534 37.9689 16.4847 38.3812 17.1868 38.6238C17.8889 38.8664 18.6401 38.9318 19.3736 38.8142C20.1513 38.7005 20.8835 38.3778 21.4921 37.8805C22.1007 37.3832 22.5629 36.73 22.8293 35.9907C23.3377 36.584 24.001 37.0244 24.7452 37.2625C25.4894 37.5006 26.2851 37.5272 27.0435 37.3392C27.6538 37.2173 28.2309 36.9661 28.7361 36.6027C29.2413 36.2393 29.6629 35.7719 29.9725 35.2321C30.6304 34.0685 30.8402 32.7046 30.5625 31.3971C30.1754 29.5381 29.2438 27.8364 27.8864 26.5086C26.3568 25.0431 24.6168 23.8144 22.724 22.8633C22.3938 22.6706 22.0894 22.437 21.8179 22.1679C21.2931 21.5821 20.8469 20.9304 20.4904 20.2294C21.5147 20.3247 22.4958 20.6881 23.335 21.2829C26.2639 23.7904 29.8671 26.2347 34.1446 25.4972C35.2378 25.3021 36.2492 24.789 37.0524 24.0222C37.5978 23.5178 38.0101 22.8865 38.2527 22.1844C38.4953 21.4823 38.5607 20.7311 38.4431 19.9976" fill="#629460"/>
</svg>
